<svg width="44" height="44" viewBox="0 0 44 44" fill="none" xmlns="http://www.w3.org/2000/svg">
<rect width="44" height="44" rx="4" fill="#EBEBEB"/>
<g clip-path="url(#clip0_2104_10457)">
<path d="M34.5096 24.7825C33.4448 24.7825 32.5786 24.0247 32.5786 23.0931V20.6895C32.5786 19.7579 33.4448 19 34.5096 19H38.0692C39.134 19 40.0002 19.7579 40.0002 20.6895V23.0931C40.0002 24.0247 39.134 24.7825 38.0692 24.7825H34.5096ZM34.1788 20.3898C34.1567 20.3898 34.1388 20.4087 34.1388 20.432V23.3471C34.1388 23.3704 34.1567 23.3893 34.1788 23.3893H38.3755C38.3976 23.3893 38.4155 23.3704 38.4155 23.3471V20.432C38.4155 20.4087 38.3976 20.3898 38.3755 20.3898H34.1788Z" fill="black"/>
<path d="M23.226 24.7825H18.7909C17.7261 24.7825 16.8599 24.0246 16.8599 23.0931V20.6886C16.8599 19.757 17.7261 18.9991 18.7909 19.0001H23.2041L23.2362 19C23.3036 19 23.3585 19.058 23.3585 19.1295V19.1346V20.2605C23.3585 20.332 23.3036 20.39 23.2362 20.39L23.2258 20.39L18.4663 20.3901C18.4407 20.3901 18.4199 20.4121 18.4199 20.4392V23.3401C18.4199 23.3672 18.4407 23.3892 18.4663 23.3892L23.2216 23.3893L23.2362 23.3894C23.3036 23.3894 23.3585 23.4474 23.3585 23.5189V23.5213L23.3579 24.652L23.3581 24.653C23.3581 24.7246 23.3036 24.7826 23.2362 24.7826L23.226 24.7825Z" fill="black"/>
<path d="M31.1651 24.7825H26.7298C25.6651 24.7825 24.7988 24.0246 24.7988 23.0931V20.6886C24.7988 19.757 25.6651 18.9991 26.7298 19.0001H31.1431L31.1751 19C31.2428 19 31.2974 19.058 31.2974 19.1295V19.1346V20.2605C31.2974 20.332 31.2428 20.39 31.1751 20.39L31.165 20.39L26.4053 20.3901C26.3797 20.3901 26.3589 20.4121 26.3589 20.4392V23.3401C26.3589 23.3672 26.3797 23.3892 26.4053 23.3892L31.1606 23.3893L31.1751 23.3894C31.2428 23.3894 31.2974 23.4474 31.2974 23.5189V23.5213L31.2969 24.652L31.2971 24.653C31.2971 24.7246 31.2428 24.7826 31.1751 24.7826L31.1651 24.7825Z" fill="black"/>
<path d="M23.2491 22.5383H19.2815C19.2419 22.5383 19.2095 22.504 19.2095 22.462V21.3322C19.2095 21.2902 19.2419 21.2559 19.2815 21.2559H23.2491C23.2887 21.2559 23.3211 21.2902 23.3211 21.3322V22.462C23.3211 22.504 23.2887 22.5383 23.2491 22.5383Z" fill="#1554FF"/>
<path d="M11.8322 24.9995C11.2208 24.9995 10.6648 24.705 10.3812 24.2309L10.3648 24.2018L7.60147 19.1715C7.58309 19.1368 7.58346 19.0966 7.60203 19.063C7.62353 19.0241 7.66584 19 7.71243 19H9.17055C9.2181 19 9.26077 19.0248 9.28193 19.0648L11.7779 23.5898C11.7831 23.5963 11.7987 23.6107 11.8345 23.6115C11.8754 23.6112 11.8868 23.5913 11.8924 23.5817L14.6017 19.0604C14.623 19.0235 14.6649 19 14.7106 19H16.1916C16.239 19 16.2817 19.0248 16.3029 19.0648C16.3213 19.0994 16.3205 19.1403 16.3009 19.1743L13.2955 24.2109C13.0186 24.6927 12.4629 24.9951 11.8457 24.9995L11.8322 24.9995Z" fill="black"/>
<path d="M6.45138 24.7828H5.12231C5.05504 24.7828 5 24.7245 5 24.6533V19.1298C5 19.0585 5.05504 19.0002 5.12231 19.0002H6.45138C6.51865 19.0002 6.57369 19.0585 6.57369 19.1298V24.6533C6.57369 24.7245 6.51865 24.7828 6.45138 24.7828Z" fill="black"/>
</g>
<defs>
<clipPath id="clip0_2104_10457">
<rect width="35" height="6" fill="white" transform="translate(5 19)"/>
</clipPath>
</defs>
</svg>
