<svg width="1004" height="359" viewBox="0 0 1004 359" fill="none" xmlns="http://www.w3.org/2000/svg">
<g clip-path="url(#clip0_399_3212)">
<path fill-rule="evenodd" clip-rule="evenodd" d="M524.34 7.05998V79.289C533.016 79.0175 556.874 66.7983 565.821 62.1821C580.732 54.036 597.27 38.0153 603.777 21.9946C605.404 18.193 608.115 10.8615 608.386 6.5169C605.675 6.24537 602.693 4.88768 599.71 4.07307C590.221 1.62923 581.274 0.271538 572.328 0H559.585C550.638 0.543075 541.691 1.62923 532.202 3.80153C529.491 4.07307 524.34 4.3446 524.34 7.05998Z" fill="#F6683A"/>
<path d="M81.4164 79.1532C103.702 51.7822 133.85 38.0967 171.834 38.0967C212.339 38.0967 240.155 54.1175 255.284 86.1589C277.38 54.1175 308.883 38.0967 349.795 38.0967C383.902 38.0967 409.305 48.035 425.979 67.9387C442.652 87.8424 450.976 117.793 450.976 157.791V359.027H366.658V158.062C366.658 140.195 363.161 127.161 356.193 118.906C349.226 110.652 336.89 106.524 319.267 106.524C294.053 106.524 276.621 118.553 266.942 142.639L267.24 359H183.221V158.361C183.221 140.113 179.642 126.917 172.457 118.743C165.273 110.597 153.073 106.524 135.83 106.524C111.998 106.524 94.7282 116.435 84.0733 136.23V359H0V43.9076H43.5143C63.4142 43.9076 79.9253 59.2767 81.4164 79.1532Z" fill="#0A135D"/>
<path d="M607.871 359H523.554V116.137C533.449 107.556 546.978 97.4549 564.33 88.4127C580.651 79.8864 595.725 74.7 607.871 71.4144V359Z" fill="#0A135D"/>
<path d="M838.456 137.968L910.356 43.9077H1000.2L907.184 176.201C897.885 189.452 897.858 207.102 907.13 220.38L1004 359.027H913.854L838.754 260.025L763.953 359.027H673.536L770.433 220.353C779.705 207.102 779.678 189.452 770.406 176.228L677.63 43.9348H767.776L838.51 137.995L838.456 137.968Z" fill="#0A135D"/>
</g>
<defs>
<clipPath id="clip0_399_3212">
<rect width="1004" height="359" fill="white"/>
</clipPath>
</defs>
</svg>
